<?xml version="1.0" encoding="utf-8"?>
<!-- Generator: Adobe Illustrator 21.0.2, SVG Export Plug-In . SVG Version: 6.00 Build 0)  -->
<svg version="1.1" id="Layer_1" xmlns="http://www.w3.org/2000/svg" xmlns:xlink="http://www.w3.org/1999/xlink" x="0px" y="0px"
	 viewBox="0 0 231 63" style="enable-background:new 0 0 231 63;" xml:space="preserve">
<style type="text/css">
	.st0{fill:#FFFFFF;}
	.st1{fill:#F7A515;}
</style>
<title>Page 1</title>
<desc>Created with Sketch.</desc>
<g>
	<g>
		<path class="st0" d="M163.6,29.8c0-0.1-0.1-0.1-0.1-0.2v-8c0-0.1,0-0.2,0.1-0.2c0-0.1,0.1-0.1,0.2-0.1h3.1c0.9,0,1.7,0.2,2.2,0.7
			c0.5,0.4,0.8,1.1,0.8,1.9s-0.3,1.5-0.8,1.9c-0.5,0.4-1.3,0.7-2.2,0.7h-2.2v3.1c0,0.1,0,0.1-0.1,0.2s-0.1,0.1-0.2,0.1h-0.6
			C163.7,29.9,163.6,29.8,163.6,29.8z M166.8,25.5c1.2,0,1.9-0.5,1.9-1.6c0-0.5-0.2-0.9-0.5-1.2c-0.3-0.3-0.8-0.4-1.4-0.4h-2.1v3.2
			H166.8z"/>
		<path class="st0" d="M171.6,29.2c-0.5-0.5-0.7-1.2-0.8-2l0-0.5l0-0.5c0-0.8,0.3-1.5,0.8-2c0.5-0.5,1.2-0.8,2.1-0.8
			c0.9,0,1.6,0.3,2.1,0.8c0.5,0.5,0.8,1.2,0.8,2c0,0.2,0,0.4,0,0.5c0,0.2,0,0.3,0,0.5c0,0.8-0.3,1.5-0.8,2c-0.5,0.5-1.2,0.8-2.1,0.8
			C172.8,30,172.1,29.7,171.6,29.2z M175,28.6c0.3-0.3,0.5-0.8,0.5-1.4c0-0.1,0-0.2,0-0.5s0-0.4,0-0.5c0-0.6-0.2-1.1-0.5-1.4
			c-0.3-0.3-0.7-0.5-1.2-0.5c-0.5,0-0.9,0.2-1.2,0.5c-0.3,0.3-0.5,0.8-0.5,1.4l0,0.5l0,0.5c0,0.6,0.2,1.1,0.5,1.4
			c0.3,0.3,0.7,0.5,1.2,0.5C174.3,29.1,174.7,28.9,175,28.6z"/>
		<path class="st0" d="M178.2,29.8c-0.1-0.1-0.1-0.1-0.1-0.2v-5.8c0-0.1,0-0.2,0.1-0.2c0.1-0.1,0.1-0.1,0.2-0.1h0.5
			c0.1,0,0.2,0,0.2,0.1c0.1,0.1,0.1,0.1,0.1,0.2v0.5c0.3-0.6,0.9-0.8,1.7-0.8h0.5c0.1,0,0.2,0,0.2,0.1c0,0,0.1,0.1,0.1,0.2v0.5
			c0,0.1,0,0.1-0.1,0.2c0,0.1-0.1,0.1-0.2,0.1h-0.7c-0.5,0-0.8,0.1-1.1,0.4c-0.3,0.3-0.4,0.6-0.4,1.1v3.6c0,0.1,0,0.1-0.1,0.2
			c-0.1,0.1-0.1,0.1-0.2,0.1h-0.6C178.4,29.9,178.3,29.8,178.2,29.8z"/>
		<path class="st0" d="M183.3,27.7v-3.3h-1c-0.1,0-0.1,0-0.2-0.1c0,0-0.1-0.1-0.1-0.2v-0.4c0-0.1,0-0.1,0.1-0.2
			c0-0.1,0.1-0.1,0.2-0.1h1v-2.1c0-0.1,0-0.1,0.1-0.2c0-0.1,0.1-0.1,0.2-0.1h0.5c0.1,0,0.1,0,0.2,0.1c0.1,0.1,0.1,0.1,0.1,0.2v2.1
			h1.5c0.1,0,0.1,0,0.2,0.1c0.1,0.1,0.1,0.1,0.1,0.2v0.4c0,0.1,0,0.1-0.1,0.2c-0.1,0-0.1,0.1-0.2,0.1h-1.5v3.2
			c0,0.4,0.1,0.7,0.2,0.9c0.1,0.2,0.4,0.3,0.7,0.3h0.7c0.1,0,0.1,0,0.2,0.1c0,0.1,0.1,0.1,0.1,0.2v0.4c0,0.1,0,0.1-0.1,0.2
			c0,0.1-0.1,0.1-0.2,0.1h-0.8C184,29.9,183.3,29.1,183.3,27.7z"/>
		<path class="st0" d="M188.1,29.2c-0.5-0.5-0.7-1.2-0.8-2l0-0.5l0-0.5c0-0.8,0.3-1.5,0.8-2c0.5-0.5,1.2-0.8,2.1-0.8
			c0.9,0,1.6,0.3,2.1,0.8c0.5,0.5,0.8,1.2,0.8,2c0,0.2,0,0.4,0,0.5c0,0.2,0,0.3,0,0.5c0,0.8-0.3,1.5-0.8,2c-0.5,0.5-1.2,0.8-2.1,0.8
			C189.2,30,188.5,29.7,188.1,29.2z M191.4,28.6c0.3-0.3,0.5-0.8,0.5-1.4c0-0.1,0-0.2,0-0.5s0-0.4,0-0.5c0-0.6-0.2-1.1-0.5-1.4
			c-0.3-0.3-0.7-0.5-1.2-0.5c-0.5,0-0.9,0.2-1.2,0.5c-0.3,0.3-0.5,0.8-0.5,1.4l0,0.5l0,0.5c0,0.6,0.2,1.1,0.5,1.4
			c0.3,0.3,0.7,0.5,1.2,0.5C190.7,29.1,191.1,28.9,191.4,28.6z"/>
		<path class="st0" d="M164.5,44.1c-0.5-0.2-0.9-0.5-1.2-0.9c-0.3-0.4-0.5-0.9-0.5-1.5c0-0.1,0-0.1,0.1-0.2c0-0.1,0.1-0.1,0.2-0.1
			h1.2c0.2,0,0.3,0.1,0.4,0.3c0.1,0.4,0.2,0.7,0.5,0.9c0.3,0.2,0.6,0.3,1.1,0.3c0.5,0,0.9-0.2,1.2-0.5c0.3-0.3,0.4-0.8,0.4-1.4v-3.9
			h-4.2c-0.1,0-0.2,0-0.2-0.1c-0.1-0.1-0.1-0.1-0.1-0.2V36c0-0.1,0-0.2,0.1-0.2c0.1-0.1,0.1-0.1,0.2-0.1h5.6c0.1,0,0.2,0,0.2,0.1
			c0.1,0.1,0.1,0.1,0.1,0.2v5.1c0,0.7-0.1,1.3-0.4,1.8c-0.3,0.5-0.7,0.9-1.2,1.1c-0.5,0.3-1.1,0.4-1.8,0.4
			C165.6,44.4,165,44.3,164.5,44.1z"/>
		<path class="st0" d="M171.9,44.2c-0.3-0.2-0.6-0.4-0.8-0.7c-0.2-0.3-0.3-0.6-0.3-0.9c0-0.6,0.2-1,0.7-1.4c0.5-0.3,1.1-0.6,1.9-0.7
			l1.7-0.2V40c0-0.4-0.1-0.6-0.3-0.8c-0.2-0.2-0.5-0.3-0.9-0.3c-0.3,0-0.5,0-0.7,0.1c-0.2,0.1-0.3,0.2-0.4,0.3
			c-0.1,0.1-0.2,0.2-0.2,0.2c0,0.1-0.1,0.1-0.2,0.1h-1c-0.1,0-0.1,0-0.2-0.1c-0.1,0-0.1-0.1-0.1-0.2c0-0.2,0.1-0.4,0.3-0.7
			c0.2-0.3,0.5-0.5,0.9-0.7c0.4-0.2,0.9-0.3,1.5-0.3c1,0,1.7,0.2,2.1,0.7c0.4,0.4,0.7,1,0.7,1.7V44c0,0.1,0,0.2-0.1,0.2
			c-0.1,0.1-0.1,0.1-0.2,0.1h-1c-0.1,0-0.2,0-0.2-0.1c-0.1-0.1-0.1-0.1-0.1-0.2v-0.5c-0.2,0.3-0.4,0.5-0.8,0.6
			c-0.3,0.2-0.7,0.3-1.2,0.3C172.7,44.4,172.3,44.4,171.9,44.2z M174.6,42.8c0.3-0.3,0.4-0.7,0.4-1.3v-0.2l-1.2,0.2
			c-0.9,0.1-1.4,0.5-1.4,0.9c0,0.3,0.1,0.5,0.3,0.6c0.2,0.1,0.5,0.2,0.8,0.2C173.9,43.3,174.3,43.1,174.6,42.8z"/>
		<path class="st0" d="M180.1,44.2c-0.1-0.1-0.1-0.1-0.2-0.2l-2.3-5.7c0,0,0-0.1,0-0.1c0-0.1,0-0.1,0.1-0.2c0.1-0.1,0.1-0.1,0.2-0.1
			h1c0.2,0,0.3,0.1,0.3,0.2l1.6,4.3l1.6-4.3c0-0.1,0.1-0.1,0.1-0.2c0.1,0,0.1-0.1,0.2-0.1h1c0.1,0,0.1,0,0.2,0.1
			c0,0.1,0.1,0.1,0.1,0.2c0,0,0,0.1,0,0.1l-2.3,5.7c-0.1,0.2-0.2,0.3-0.4,0.3h-0.9C180.2,44.3,180.1,44.3,180.1,44.2z"/>
		<path class="st0" d="M185.6,44.2c-0.3-0.2-0.6-0.4-0.8-0.7c-0.2-0.3-0.3-0.6-0.3-0.9c0-0.6,0.2-1,0.7-1.4c0.5-0.3,1.1-0.6,1.9-0.7
			l1.7-0.2V40c0-0.4-0.1-0.6-0.3-0.8c-0.2-0.2-0.5-0.3-0.9-0.3c-0.3,0-0.5,0-0.7,0.1c-0.2,0.1-0.3,0.2-0.4,0.3
			c-0.1,0.1-0.2,0.2-0.2,0.2c0,0.1-0.1,0.1-0.2,0.1h-1c-0.1,0-0.1,0-0.2-0.1c-0.1,0-0.1-0.1-0.1-0.2c0-0.2,0.1-0.4,0.3-0.7
			c0.2-0.3,0.5-0.5,0.9-0.7c0.4-0.2,0.9-0.3,1.5-0.3c1,0,1.7,0.2,2.1,0.7c0.4,0.4,0.7,1,0.7,1.7V44c0,0.1,0,0.2-0.1,0.2
			c-0.1,0.1-0.1,0.1-0.2,0.1h-1c-0.1,0-0.2,0-0.2-0.1c-0.1-0.1-0.1-0.1-0.1-0.2v-0.5c-0.2,0.3-0.4,0.5-0.8,0.6
			c-0.3,0.2-0.7,0.3-1.2,0.3C186.3,44.4,185.9,44.4,185.6,44.2z M188.3,42.8c0.3-0.3,0.4-0.7,0.4-1.3v-0.2l-1.2,0.2
			c-0.9,0.1-1.4,0.5-1.4,0.9c0,0.3,0.1,0.5,0.3,0.6c0.2,0.1,0.5,0.2,0.8,0.2C187.6,43.3,188,43.1,188.3,42.8z"/>
		<path class="st0" d="M193.2,44.1c-0.5-0.2-0.9-0.5-1.2-0.9c-0.3-0.4-0.4-0.8-0.4-1.2c0-0.1,0-0.1,0.1-0.2c0-0.1,0.1-0.1,0.2-0.1
			h1.1c0.1,0,0.2,0,0.2,0.1c0.1,0,0.1,0.1,0.2,0.2c0.1,0.3,0.3,0.5,0.6,0.7s0.7,0.3,1.2,0.3c0.6,0,1-0.1,1.3-0.3
			c0.3-0.2,0.4-0.5,0.4-0.8c0-0.2-0.1-0.4-0.2-0.6c-0.1-0.1-0.4-0.3-0.7-0.4c-0.3-0.1-0.7-0.2-1.3-0.4c-1-0.2-1.7-0.5-2.1-0.9
			c-0.5-0.4-0.7-0.9-0.7-1.6c0-0.5,0.1-0.9,0.4-1.3c0.3-0.4,0.6-0.7,1.1-0.9c0.5-0.2,1.1-0.3,1.7-0.3c0.7,0,1.3,0.1,1.8,0.4
			c0.5,0.2,0.9,0.5,1.1,0.9c0.3,0.4,0.4,0.7,0.4,1.1c0,0.1,0,0.1-0.1,0.2c0,0.1-0.1,0.1-0.2,0.1h-1.2c-0.2,0-0.3-0.1-0.4-0.2
			c0-0.3-0.2-0.5-0.5-0.7c-0.3-0.2-0.6-0.3-1-0.3c-0.5,0-0.8,0.1-1.1,0.3c-0.3,0.2-0.4,0.4-0.4,0.7c0,0.2,0.1,0.4,0.2,0.6
			c0.1,0.1,0.3,0.3,0.6,0.4c0.3,0.1,0.7,0.2,1.2,0.4c0.7,0.2,1.3,0.3,1.7,0.6c0.4,0.2,0.7,0.5,1,0.8c0.2,0.3,0.3,0.7,0.3,1.2
			c0,0.5-0.1,1-0.4,1.4c-0.3,0.4-0.7,0.7-1.2,0.9c-0.5,0.2-1.1,0.3-1.8,0.3C194.3,44.4,193.7,44.3,193.2,44.1z"/>
		<path class="st0" d="M200.4,43.7c-0.5-0.5-0.8-1.2-0.9-2.1l0-0.5l0-0.5c0-0.9,0.3-1.6,0.9-2.1c0.5-0.5,1.3-0.7,2.2-0.7
			c0.6,0,1.2,0.1,1.6,0.3c0.4,0.2,0.8,0.5,1,0.8c0.2,0.3,0.3,0.6,0.4,1c0,0.1,0,0.2-0.1,0.2c-0.1,0.1-0.1,0.1-0.2,0.1h-1.1
			c-0.1,0-0.2,0-0.2-0.1c0,0-0.1-0.1-0.1-0.2c-0.1-0.3-0.3-0.5-0.5-0.7c-0.2-0.1-0.5-0.2-0.8-0.2c-0.4,0-0.7,0.1-1,0.4
			c-0.2,0.3-0.4,0.7-0.4,1.2l0,0.5l0,0.4c0,1.1,0.5,1.6,1.4,1.6c0.3,0,0.6-0.1,0.8-0.2c0.2-0.1,0.4-0.4,0.5-0.7
			c0-0.1,0.1-0.2,0.1-0.2c0,0,0.1-0.1,0.2-0.1h1.1c0.1,0,0.2,0,0.2,0.1c0.1,0.1,0.1,0.1,0.1,0.2c0,0.3-0.1,0.6-0.3,0.9
			c-0.2,0.3-0.5,0.6-1,0.9c-0.4,0.2-1,0.4-1.7,0.4C201.7,44.4,201,44.2,200.4,43.7z"/>
		<path class="st0" d="M206.9,44.2c-0.1-0.1-0.1-0.1-0.1-0.2v-5.8c0-0.1,0-0.2,0.1-0.2c0.1-0.1,0.1-0.1,0.2-0.1h1
			c0.1,0,0.2,0,0.2,0.1c0.1,0.1,0.1,0.1,0.1,0.2v0.5c0.4-0.5,1-0.8,1.8-0.8h0.5c0.1,0,0.2,0,0.2,0.1c0.1,0.1,0.1,0.1,0.1,0.2v0.9
			c0,0.1,0,0.2-0.1,0.2c-0.1,0.1-0.1,0.1-0.2,0.1h-1c-0.4,0-0.7,0.1-0.9,0.3c-0.2,0.2-0.3,0.5-0.3,0.9V44c0,0.1,0,0.2-0.1,0.2
			c-0.1,0.1-0.1,0.1-0.2,0.1h-1.1C207,44.3,207,44.3,206.9,44.2z"/>
		<path class="st0" d="M212,36.8c-0.1-0.1-0.1-0.1-0.1-0.2v-0.9c0-0.1,0-0.2,0.1-0.2c0.1-0.1,0.1-0.1,0.2-0.1h1.1
			c0.1,0,0.2,0,0.2,0.1c0.1,0.1,0.1,0.1,0.1,0.2v0.9c0,0.1,0,0.2-0.1,0.2c-0.1,0.1-0.1,0.1-0.2,0.1h-1.1
			C212.1,36.9,212.1,36.9,212,36.8z M212.1,44.2c-0.1-0.1-0.1-0.1-0.1-0.2v-5.8c0-0.1,0-0.2,0.1-0.2c0.1-0.1,0.1-0.1,0.2-0.1h1
			c0.1,0,0.2,0,0.2,0.1c0.1,0.1,0.1,0.1,0.1,0.2V44c0,0.1,0,0.2-0.1,0.2c-0.1,0.1-0.1,0.1-0.2,0.1h-1
			C212.2,44.3,212.1,44.3,212.1,44.2z"/>
		<path class="st0" d="M215.3,46.6c-0.1-0.1-0.1-0.1-0.1-0.2v-8.1c0-0.1,0-0.2,0.1-0.2s0.1-0.1,0.2-0.1h1c0.1,0,0.2,0,0.2,0.1
			c0.1,0.1,0.1,0.1,0.1,0.2v0.5c0.4-0.6,1.1-0.9,2-0.9c0.8,0,1.5,0.3,1.9,0.8c0.4,0.5,0.7,1.2,0.7,2.1c0,0.1,0,0.2,0,0.4
			s0,0.3,0,0.4c0,0.9-0.3,1.6-0.7,2.1c-0.4,0.5-1.1,0.8-1.9,0.8c-0.8,0-1.4-0.3-1.9-0.9v2.8c0,0.1,0,0.2-0.1,0.2
			c-0.1,0.1-0.1,0.1-0.2,0.1h-1.1C215.5,46.7,215.4,46.6,215.3,46.6z M219.7,41.5c0-0.1,0-0.2,0-0.4s0-0.3,0-0.4
			c-0.1-1.1-0.5-1.6-1.4-1.6c-0.5,0-0.8,0.2-1,0.5c-0.2,0.3-0.4,0.7-0.4,1.1c0,0.1,0,0.3,0,0.5c0,0.2,0,0.4,0,0.5
			c0,0.4,0.1,0.8,0.4,1c0.2,0.3,0.6,0.4,1,0.4C219.2,43.1,219.7,42.6,219.7,41.5z"/>
		<path class="st0" d="M223.9,43.7c-0.4-0.4-0.6-1-0.6-1.7v-2.8h-1c-0.1,0-0.2,0-0.2-0.1c-0.1-0.1-0.1-0.1-0.1-0.2v-0.7
			c0-0.1,0-0.2,0.1-0.2c0.1-0.1,0.1-0.1,0.2-0.1h1v-2c0-0.1,0-0.2,0.1-0.2c0.1-0.1,0.1-0.1,0.2-0.1h1c0.1,0,0.2,0,0.2,0.1
			c0.1,0.1,0.1,0.1,0.1,0.2v2h1.5c0.1,0,0.2,0,0.2,0.1c0.1,0.1,0.1,0.1,0.1,0.2v0.7c0,0.1,0,0.2-0.1,0.2c-0.1,0.1-0.1,0.1-0.2,0.1
			H225v2.6c0,0.4,0.1,0.6,0.2,0.8c0.1,0.2,0.3,0.3,0.6,0.3h0.9c0.1,0,0.2,0,0.2,0.1c0.1,0.1,0.1,0.1,0.1,0.2V44c0,0.1,0,0.2-0.1,0.2
			c-0.1,0.1-0.1,0.1-0.2,0.1h-1C224.9,44.3,224.3,44.1,223.9,43.7z"/>
		<path class="st0" d="M164.1,58c-0.6-0.6-0.9-1.4-1-2.5c0-0.2,0-0.6,0-1.1c0-0.5,0-0.9,0-1.1c0-1,0.4-1.9,1-2.5
			c0.6-0.6,1.5-0.9,2.6-0.9c0.7,0,1.4,0.1,1.9,0.4c0.5,0.2,1,0.6,1.3,1c0.3,0.4,0.5,0.9,0.5,1.5v0c0,0.1,0,0.1-0.1,0.2
			c-0.1,0-0.1,0.1-0.2,0.1h-1.2c-0.1,0-0.2,0-0.2-0.1c0,0-0.1-0.1-0.1-0.2c-0.1-0.5-0.3-0.9-0.6-1.1c-0.3-0.2-0.7-0.3-1.2-0.3
			c-1.2,0-1.8,0.7-1.8,2c0,0.2,0,0.6,0,1c0,0.5,0,0.8,0,1c0,1.3,0.7,2,1.8,2c0.5,0,0.9-0.1,1.2-0.3c0.3-0.2,0.5-0.6,0.6-1.1
			c0-0.1,0.1-0.2,0.1-0.2c0,0,0.1-0.1,0.2-0.1h1.2c0.1,0,0.1,0,0.2,0.1s0.1,0.1,0.1,0.2c0,0.5-0.2,1-0.5,1.5c-0.3,0.4-0.7,0.8-1.3,1
			c-0.5,0.3-1.2,0.4-1.9,0.4C165.6,58.9,164.7,58.6,164.1,58z"/>
		<path class="st0" d="M172.3,58.2c-0.5-0.5-0.8-1.2-0.8-2l0-0.5l0-0.5c0-0.9,0.3-1.5,0.9-2c0.5-0.5,1.3-0.7,2.2-0.7
			c0.9,0,1.7,0.2,2.2,0.7c0.5,0.5,0.8,1.2,0.9,2c0,0.1,0,0.3,0,0.5c0,0.3,0,0.4,0,0.5c0,0.9-0.3,1.5-0.8,2c-0.5,0.5-1.3,0.7-2.2,0.7
			C173.5,58.9,172.8,58.6,172.3,58.2z M175.5,57.2c0.2-0.3,0.4-0.7,0.4-1.2c0-0.1,0-0.2,0-0.5s0-0.4,0-0.5c0-0.5-0.1-0.9-0.4-1.2
			c-0.2-0.3-0.6-0.4-1-0.4c-0.4,0-0.8,0.1-1,0.4c-0.2,0.3-0.4,0.7-0.4,1.2l0,0.5l0,0.5c0,0.5,0.1,0.9,0.4,1.2s0.6,0.4,1,0.4
			C174.9,57.7,175.3,57.5,175.5,57.2z"/>
		<path class="st0" d="M179,58.7c-0.1-0.1-0.1-0.1-0.1-0.2v-5.8c0-0.1,0-0.2,0.1-0.2c0.1-0.1,0.1-0.1,0.2-0.1h1c0.1,0,0.2,0,0.2,0.1
			c0.1,0.1,0.1,0.1,0.1,0.2v0.4c0.4-0.6,1-0.8,1.8-0.8c0.9,0,1.5,0.4,1.9,1.1c0.2-0.3,0.5-0.6,0.8-0.8c0.4-0.2,0.7-0.3,1.2-0.3
			c0.7,0,1.2,0.2,1.6,0.7c0.4,0.5,0.6,1.1,0.6,2v3.5c0,0.1,0,0.2-0.1,0.2c-0.1,0.1-0.1,0.1-0.2,0.1h-1c-0.1,0-0.2,0-0.2-0.1
			c-0.1-0.1-0.1-0.1-0.1-0.2V55c0-0.5-0.1-0.9-0.3-1.1c-0.2-0.2-0.5-0.3-0.9-0.3c-0.3,0-0.6,0.1-0.8,0.4c-0.2,0.2-0.3,0.6-0.3,1.1
			v3.4c0,0.1,0,0.2-0.1,0.2c-0.1,0.1-0.1,0.1-0.2,0.1h-1c-0.1,0-0.2,0-0.2-0.1c-0.1-0.1-0.1-0.1-0.1-0.2V55c0-0.5-0.1-0.9-0.3-1.1
			c-0.2-0.2-0.5-0.4-0.8-0.4c-0.3,0-0.6,0.1-0.8,0.4c-0.2,0.2-0.3,0.6-0.3,1.1v3.4c0,0.1,0,0.2-0.1,0.2c-0.1,0.1-0.1,0.1-0.2,0.1h-1
			C179.2,58.8,179.1,58.7,179,58.7z"/>
		<path class="st0" d="M190.1,58.7c-0.1-0.1-0.1-0.1-0.1-0.2v-5.8c0-0.1,0-0.2,0.1-0.2c0.1-0.1,0.1-0.1,0.2-0.1h1
			c0.1,0,0.2,0,0.2,0.1c0.1,0.1,0.1,0.1,0.1,0.2v0.4c0.4-0.6,1-0.8,1.8-0.8c0.9,0,1.5,0.4,1.9,1.1c0.2-0.3,0.5-0.6,0.8-0.8
			c0.4-0.2,0.7-0.3,1.2-0.3c0.7,0,1.2,0.2,1.6,0.7c0.4,0.5,0.6,1.1,0.6,2v3.5c0,0.1,0,0.2-0.1,0.2c-0.1,0.1-0.1,0.1-0.2,0.1h-1
			c-0.1,0-0.2,0-0.2-0.1c-0.1-0.1-0.1-0.1-0.1-0.2V55c0-0.5-0.1-0.9-0.3-1.1c-0.2-0.2-0.5-0.3-0.9-0.3c-0.3,0-0.6,0.1-0.8,0.4
			c-0.2,0.2-0.3,0.6-0.3,1.1v3.4c0,0.1,0,0.2-0.1,0.2c-0.1,0.1-0.1,0.1-0.2,0.1h-1c-0.1,0-0.2,0-0.2-0.1c-0.1-0.1-0.1-0.1-0.1-0.2
			V55c0-0.5-0.1-0.9-0.3-1.1c-0.2-0.2-0.5-0.4-0.8-0.4c-0.3,0-0.6,0.1-0.8,0.4c-0.2,0.2-0.3,0.6-0.3,1.1v3.4c0,0.1,0,0.2-0.1,0.2
			c-0.1,0.1-0.1,0.1-0.2,0.1h-1C190.2,58.8,190.2,58.7,190.1,58.7z"/>
		<path class="st0" d="M201.7,58.2c-0.4-0.5-0.7-1.2-0.7-2v-3.5c0-0.1,0-0.2,0.1-0.2c0.1-0.1,0.1-0.1,0.2-0.1h1.1
			c0.1,0,0.2,0,0.2,0.1c0.1,0.1,0.1,0.1,0.1,0.2v3.4c0,1,0.4,1.5,1.3,1.5c0.4,0,0.8-0.1,1-0.4s0.4-0.6,0.4-1.1v-3.4
			c0-0.1,0-0.2,0.1-0.2c0.1-0.1,0.1-0.1,0.2-0.1h1.1c0.1,0,0.2,0,0.2,0.1c0.1,0.1,0.1,0.1,0.1,0.2v5.8c0,0.1,0,0.2-0.1,0.2
			c-0.1,0.1-0.1,0.1-0.2,0.1h-1c-0.1,0-0.2,0-0.2-0.1c-0.1-0.1-0.1-0.1-0.1-0.2V58c-0.5,0.6-1.1,0.9-2,0.9
			C202.7,58.9,202.1,58.6,201.7,58.2z"/>
		<path class="st0" d="M208.9,58.7c-0.1-0.1-0.1-0.1-0.1-0.2v-5.8c0-0.1,0-0.2,0.1-0.2c0.1-0.1,0.1-0.1,0.2-0.1h1
			c0.1,0,0.2,0,0.2,0.1c0.1,0.1,0.1,0.1,0.1,0.2v0.5c0.5-0.6,1.2-0.9,2.1-0.9c0.8,0,1.4,0.2,1.8,0.7c0.4,0.5,0.7,1.2,0.7,2v3.5
			c0,0.1,0,0.2-0.1,0.2c-0.1,0.1-0.1,0.1-0.2,0.1h-1.1c-0.1,0-0.2,0-0.2-0.1c-0.1-0.1-0.1-0.1-0.1-0.2v-3.4c0-0.5-0.1-0.8-0.4-1.1
			c-0.2-0.3-0.6-0.4-1-0.4c-0.4,0-0.8,0.1-1,0.4c-0.3,0.3-0.4,0.6-0.4,1.1v3.4c0,0.1,0,0.2-0.1,0.2c-0.1,0.1-0.1,0.1-0.2,0.1h-1.1
			C209,58.8,208.9,58.7,208.9,58.7z"/>
		<path class="st0" d="M216.5,51.3c-0.1-0.1-0.1-0.1-0.1-0.2v-0.9c0-0.1,0-0.2,0.1-0.2c0.1-0.1,0.1-0.1,0.2-0.1h1.1
			c0.1,0,0.2,0,0.2,0.1c0.1,0.1,0.1,0.1,0.1,0.2V51c0,0.1,0,0.2-0.1,0.2c-0.1,0.1-0.1,0.1-0.2,0.1h-1.1
			C216.6,51.3,216.5,51.3,216.5,51.3z M216.5,58.7c-0.1-0.1-0.1-0.1-0.1-0.2v-5.8c0-0.1,0-0.2,0.1-0.2c0.1-0.1,0.1-0.1,0.2-0.1h1
			c0.1,0,0.2,0,0.2,0.1c0.1,0.1,0.1,0.1,0.1,0.2v5.8c0,0.1,0,0.2-0.1,0.2c-0.1,0.1-0.1,0.1-0.2,0.1h-1
			C216.7,58.8,216.6,58.7,216.5,58.7z"/>
		<path class="st0" d="M220.9,58.2c-0.4-0.4-0.6-1-0.6-1.7v-2.8h-1c-0.1,0-0.2,0-0.2-0.1c-0.1-0.1-0.1-0.1-0.1-0.2v-0.7
			c0-0.1,0-0.2,0.1-0.2c0.1-0.1,0.1-0.1,0.2-0.1h1v-2c0-0.1,0-0.2,0.1-0.2c0.1-0.1,0.1-0.1,0.2-0.1h1c0.1,0,0.2,0,0.2,0.1
			c0.1,0.1,0.1,0.1,0.1,0.2v2h1.5c0.1,0,0.2,0,0.2,0.1c0.1,0.1,0.1,0.1,0.1,0.2v0.7c0,0.1,0,0.2-0.1,0.2c-0.1,0.1-0.1,0.1-0.2,0.1
			H222v2.6c0,0.4,0.1,0.6,0.2,0.8c0.1,0.2,0.3,0.3,0.6,0.3h0.9c0.1,0,0.2,0,0.2,0.1c0.1,0.1,0.1,0.1,0.1,0.2v0.8
			c0,0.1,0,0.2-0.1,0.2c-0.1,0.1-0.1,0.1-0.2,0.1h-1C221.9,58.8,221.3,58.6,220.9,58.2z"/>
		<path class="st0" d="M226,61c-0.1,0-0.1-0.1-0.1-0.2c0-0.1,0-0.1,0-0.2l1-2.3l-2.4-5.6c0-0.1,0-0.1,0-0.2c0-0.1,0-0.1,0.1-0.2
			c0-0.1,0.1-0.1,0.2-0.1h1c0.1,0,0.3,0.1,0.3,0.2l1.6,4l1.7-4c0.1-0.2,0.2-0.2,0.3-0.2h1c0.1,0,0.1,0,0.2,0.1c0,0,0.1,0.1,0.1,0.2
			c0,0.1,0,0.1,0,0.2l-3.5,8c-0.1,0.2-0.2,0.2-0.3,0.2h-1C226.1,61.1,226,61.1,226,61z"/>
	</g>
</g>
<path class="st0" d="M28.7,19C36.2,19,40,24,40,29.9s-3.8,10.9-11.3,10.9c-7.5,0-11.3-4.9-11.3-10.9S21.2,19,28.7,19z M28.7,25.3
	c-2.7,0-4.2,1.8-4.2,4.7s1.5,4.7,4.2,4.7c2.7,0,4.2-1.8,4.2-4.7S31.4,25.3,28.7,25.3z"/>
<path class="st0" d="M51.4,19.5c5.3,0,9.4,1.8,9.4,7.7c0,5.8-4.1,7.7-9.4,7.7h-2.2v5.5h-6.9V19.5H51.4z M51.4,25.2h-2.2v4.1h2.2
	c1.6,0,2.6-0.6,2.6-2C54,25.8,52.9,25.2,51.4,25.2z"/>
<path class="st0" d="M73.3,19c7.5,0,11.3,4.9,11.3,10.9s-3.8,10.9-11.3,10.9S62,35.9,62,29.9S65.8,19,73.3,19z M73.3,25.3
	c-2.7,0-4.2,1.8-4.2,4.7s1.5,4.7,4.2,4.7c2.7,0,4.2-1.8,4.2-4.7S75.9,25.3,73.3,25.3z"/>
<g>
	<path class="st1" d="M105.9,45.1c-1,0-1.9-0.1-2.6-0.4v-3.5c0.4,0.2,1,0.3,1.5,0.3c1.1,0,2-0.5,2-2V23.8h4.1v16.3
		C110.9,43.9,108.5,45.1,105.9,45.1z M108.9,21.4c-1.3,0-2.4-0.7-2.4-2.4c0-1.6,1.2-2.3,2.4-2.3c1.3,0,2.4,0.7,2.4,2.3
		C111.3,20.7,110.1,21.4,108.9,21.4z"/>
	<path class="st1" d="M119.8,23.4c2,0,3.8,0.5,5.3,1.2V28c-1.2-0.8-3.3-1.5-5-1.5c-0.9,0-2,0.3-2,1.1c0,2.4,8.1,1.2,8.1,6.4
		c0,3.4-3.1,4.4-6.5,4.4c-2.2,0-4.2-0.5-5.7-1.3v-3.4c1.5,1,3.7,1.5,5.5,1.5c1.5,0,2.5-0.3,2.5-1.1c0-2.3-8.1-1.3-8.1-6.4
		C113.8,24.5,116.8,23.4,119.8,23.4z"/>
</g>
<polygon class="st0" points="4.7,55.7 4.7,4.2 87,4.2 87,0.2 0.7,0.2 0.7,59.7 87,59.7 87,55.7 "/>
<polygon class="st1" points="148.4,0.2 98.4,0.2 98.4,4.2 144.4,4.2 144.4,55.7 98.4,55.7 98.4,59.7 148.4,59.7 "/>
<path class="st0" d="M93.2,39.9c-1.8,0-3.5-1.1-3.5-3.4c0-2.3,1.6-3.4,3.5-3.4c1.9,0,3.5,1.1,3.5,3.4C96.6,38.8,95,39.9,93.2,39.9z"
	/>
</svg>
