<?xml version="1.0" encoding="UTF-8"?>
<svg width="231px" height="63px" viewBox="0 0 231 63" version="1.1" xmlns="http://www.w3.org/2000/svg" xmlns:xlink="http://www.w3.org/1999/xlink">
    <!-- Generator: Sketch 42 (36781) - http://www.bohemiancoding.com/sketch -->
    <title>Page 1</title>
    <desc>Created with Sketch.</desc>
    <defs>
        <polygon id="path-1" points="6.68489369 5.07545349 6.68489369 9.47286822 0.217891866 9.47286822 0.217891866 0.67803876 6.68489369 0.67803876 6.68489369 5.07545349"></polygon>
    </defs>
    <g id="Page-1" stroke="none" stroke-width="1" fill="none" fill-rule="evenodd">
        <g id="Desktop-HD" transform="translate(-374.000000, -138.000000)">
            <g id="Page-1" transform="translate(374.000000, 138.000000)">
                <path d="M28.6957835,26.0140992 C25.9502022,26.0140992 24.3638343,27.9006574 24.3638343,30.8678512 C24.3638343,33.8357736 25.9502022,35.7216031 28.6957835,35.7216031 C31.4413648,35.7216031 33.0284518,33.8357736 33.0284518,30.8678512 C33.0284518,27.9006574 31.4413648,26.0140992 28.6957835,26.0140992 M28.6957835,19.5528744 C36.3838427,19.5528744 40.2591538,24.6543783 40.2591538,30.8678512 C40.2591538,37.0820527 36.3838427,42.1828279 28.6957835,42.1828279 C21.0077243,42.1828279 17.1324132,37.0820527 17.1324132,30.8678512 C17.1324132,24.6543783 21.0077243,19.5528744 28.6957835,19.5528744" id="Fill-1" fill="#FFFFFF"></path>
                <path d="M51.88444,25.9215566 L49.6573406,25.9215566 L49.6573406,30.1566574 L51.88444,30.1566574 C53.5017297,30.1566574 54.5386937,29.5387349 54.5386937,28.055138 C54.5386937,26.5402078 53.5017297,25.9215566 51.88444,25.9215566 L51.88444,25.9215566 Z M51.9455647,20.0476496 C57.3763217,20.0476496 61.5256157,21.9640837 61.5256157,28.055138 C61.5256157,34.1141302 57.3763217,36.031293 51.9455647,36.031293 L49.6573406,36.031293 L49.6573406,41.6887814 L42.6100129,41.6887814 L42.6100129,20.0476496 L51.9455647,20.0476496 Z" id="Fill-3" fill="#FFFFFF"></path>
                <path d="M74.310403,26.0140992 C71.5641025,26.0140992 69.9784538,27.9006574 69.9784538,30.8678512 C69.9784538,33.8357736 71.5641025,35.7216031 74.310403,35.7216031 C77.0559843,35.7216031 78.6423522,33.8357736 78.6423522,30.8678512 C78.6423522,27.9006574 77.0559843,26.0140992 74.310403,26.0140992 M74.310403,19.5528744 C81.9984622,19.5528744 85.8737733,24.6543783 85.8737733,30.8678512 C85.8737733,37.0820527 81.9984622,42.1828279 74.310403,42.1828279 C66.6223438,42.1828279 62.7470326,37.0820527 62.7470326,30.8678512 C62.7470326,24.6543783 66.6223438,19.5528744 74.310403,19.5528744" id="Fill-5" fill="#FFFFFF"></path>
                <path d="M110.745806,22.0369519 C109.43414,22.0369519 108.244005,21.2936961 108.244005,19.5936806 C108.244005,17.9242698 109.43414,17.1824713 110.745806,17.1824713 C112.058191,17.1824713 113.217405,17.9242698 113.217405,19.5936806 C113.217405,21.2936961 112.058191,22.0369519 110.745806,22.0369519 M107.726242,46.5840682 C106.68784,46.5840682 105.773126,46.4295876 105.101472,46.151231 L105.101472,42.4721147 C105.558829,42.6885333 106.108233,42.7818047 106.626715,42.7818047 C107.726242,42.7818047 108.640956,42.2250915 108.640956,40.6788279 L108.640956,24.5100992 L112.851375,24.5100992 L112.851375,41.4519597 C112.851375,45.3161612 110.379777,46.5840682 107.726242,46.5840682" id="Fill-7" fill="#FFFFFF"></path>
                <path d="M121.943363,24.0771163 C124.01801,24.0771163 125.848877,24.6024961 127.343917,25.3442946 L127.343917,28.8682016 C126.092657,28.0032558 123.956885,27.354 122.218065,27.354 C121.27099,27.354 120.173621,27.6323566 120.173621,28.5286357 C120.173621,31.0025116 128.441286,29.765938 128.441286,35.2062791 C128.441286,38.7003101 125.298754,39.7824031 121.790191,39.7824031 C119.563092,39.7824031 117.458242,39.2876279 115.963202,38.3913488 L115.963202,34.8361085 C117.54957,35.8868682 119.776669,36.4122481 121.546411,36.4122481 C123.102576,36.4122481 124.109337,36.1338915 124.109337,35.2995504 C124.109337,32.9189457 115.841671,33.9704341 115.841671,28.6517829 C115.841671,25.2204186 118.861955,24.0771163 121.943363,24.0771163" id="Fill-9" fill="#FFFFFF"></path>
                <polygon id="Fill-11" fill="#FFFFFF" points="4.06817777 57.614276 4.06817777 4.12244651 88.3304861 4.12244651 88.3304861 0.000291472868 0.000143823014 0.000291472868 0.000143823014 61.736431 88.3304861 61.736431 88.3304861 57.614276"></polygon>
                <polygon id="Fill-13" fill="#FFFFFF" points="146.629217 0 99.9931662 0 99.9931662 4.12215504 142.561183 4.12215504 142.561183 57.6139845 99.9931662 57.6139845 99.9931662 61.7368682 146.629217 61.7368682"></polygon>
                <path d="M94.6703484,41.2189271 C92.7783566,41.2189271 91.1006612,40.1055008 91.1006612,37.7248961 C91.1006612,35.3442915 92.7783566,34.2315938 94.6703484,34.2315938 C96.592543,34.2315938 98.2400356,35.3442915 98.2400356,37.7248961 C98.2400356,40.1055008 96.592543,41.2189271 94.6703484,41.2189271" id="Fill-15" fill="#FFFFFF"></path>
                <path d="M167.786948,28.4214465 C168.178147,28.0214 168.390286,27.4078496 168.423365,26.5829814 C168.438467,26.0867488 168.447096,25.7566558 168.447096,25.5905163 C168.447096,25.4098031 168.438467,25.0797101 168.423365,24.6002372 C168.390286,23.7746403 168.178147,23.1589039 167.786948,22.7544853 C167.39575,22.3500667 166.873672,22.1482217 166.222154,22.1482217 C165.570636,22.1482217 165.046401,22.3500667 164.651607,22.7544853 C164.256093,23.1589039 164.046831,23.7746403 164.021662,24.6002372 C164.013752,24.8399736 164.009437,25.1700667 164.009437,25.5905163 C164.009437,26.0044078 164.013752,26.3345008 164.021662,26.5829814 C164.046831,27.4078496 164.253936,28.0214 164.645135,28.4214465 C165.037052,28.8229504 165.562006,29.0218806 166.222154,29.0218806 C166.873672,29.0218806 167.39575,28.8229504 167.786948,28.4214465 M163.764938,29.2018651 C163.18605,28.6364078 162.881145,27.7838496 162.848785,26.6441907 C162.840156,26.3964388 162.835841,26.045214 162.835841,25.5905163 C162.835841,25.1365473 162.840156,24.7904233 162.848785,24.5506868 C162.881145,23.4270589 163.196837,22.5766868 163.795141,21.9988419 C164.394883,21.4209969 165.203168,21.1317101 166.222154,21.1317101 C167.240421,21.1317101 168.047987,21.4209969 168.641976,21.9988419 C169.238123,22.5766868 169.550938,23.4270589 169.584017,24.5506868 C169.599838,25.0301597 169.608467,25.3762837 169.608467,25.5905163 C169.608467,25.797462 169.599838,26.1486868 169.584017,26.6441907 C169.550938,27.7838496 169.247471,28.6364078 168.672898,29.2018651 C168.099044,29.7680512 167.281411,30.0507798 166.222154,30.0507798 C165.162898,30.0507798 164.343825,29.7680512 163.764938,29.2018651" id="Fill-17" fill="#FFFFFF"></path>
                <path d="M175.41489,28.5267411 C175.684558,28.1551132 175.830538,27.6683535 175.854988,27.0650047 C175.862898,26.9826636 175.867213,26.8631597 175.867213,26.706493 C175.867213,25.1201519 175.288325,24.3273457 174.131269,24.3273457 C173.561011,24.3273457 173.13098,24.5197178 172.841896,24.9030047 C172.552812,25.2877488 172.39964,25.7402605 172.3831,26.2598109 C172.37519,26.3508961 172.371595,26.5119349 172.371595,26.7436558 C172.371595,26.9739194 172.37519,27.1356868 172.3831,27.2260434 C172.39964,27.7295628 172.556407,28.1660434 172.854121,28.5332992 C173.151835,28.9012837 173.576832,29.0849116 174.131269,29.0849116 C174.718067,29.0849116 175.14666,28.898369 175.41489,28.5267411 M171.350451,32.2058574 C171.296518,32.156307 171.270629,32.0863535 171.270629,31.9952682 L171.270629,23.7706326 C171.270629,23.6795473 171.296518,23.6095938 171.350451,23.5600434 C171.403666,23.5097643 171.470543,23.4857178 171.552523,23.4857178 L172.065252,23.4857178 C172.155141,23.4857178 172.224176,23.5097643 172.273076,23.5600434 C172.321976,23.6095938 172.346426,23.6795473 172.346426,23.7706326 L172.346426,24.3156868 C172.819603,23.6795473 173.491976,23.3618419 174.363543,23.3618419 C175.220009,23.3618419 175.86146,23.6358264 176.289334,24.1852527 C176.717207,24.7346791 176.943009,25.434214 176.967459,26.2853147 C176.975369,26.3764 176.979684,26.5155783 176.979684,26.706493 C176.979684,26.8959504 176.975369,27.036586 176.967459,27.1276713 C176.943009,27.9692992 176.717207,28.6673767 176.289334,29.2204465 C175.86146,29.774245 175.220009,30.0511442 174.363543,30.0511442 C173.491976,30.0511442 172.831109,29.7363535 172.3831,29.1089581 L172.3831,31.9952682 C172.3831,32.0776093 172.357212,32.1461054 172.303998,32.2000279 C172.250783,32.2532217 172.183187,32.2801829 172.102646,32.2801829 L171.552523,32.2801829 C171.470543,32.2801829 171.403666,32.2554078 171.350451,32.2058574" id="Fill-19" fill="#FFFFFF"></path>
                <path d="M182.340615,28.6200124 C182.646239,28.2855473 182.810916,27.8046171 182.834647,27.1772217 C182.843276,27.0941519 182.847591,26.9367566 182.847591,26.706493 C182.847591,26.4747721 182.843276,26.3181054 182.834647,26.2357643 C182.810916,25.6076403 182.646239,25.1267101 182.340615,24.792245 C182.034272,24.4577798 181.620781,24.2909116 181.098703,24.2909116 C180.578064,24.2909116 180.164573,24.4577798 179.858949,24.792245 C179.552606,25.1267101 179.388648,25.6076403 179.363479,26.2357643 L179.351973,26.706493 L179.363479,27.1772217 C179.388648,27.8046171 179.552606,28.2855473 179.858949,28.6200124 C180.164573,28.9544775 180.578064,29.1213457 181.098703,29.1213457 C181.620781,29.1213457 182.034272,28.9544775 182.340615,28.6200124 M179.027652,29.2823845 C178.542968,28.7708496 178.283368,28.0895318 178.251008,27.238431 L178.238783,26.706493 L178.251008,26.1738264 C178.283368,25.3234543 178.546564,24.6414078 179.039877,24.1291442 C179.53319,23.6176093 180.219945,23.3618419 181.098703,23.3618419 C181.979619,23.3618419 182.666374,23.6176093 183.159687,24.1291442 C183.652281,24.6414078 183.914758,25.3234543 183.947837,26.1738264 C183.964377,26.3552682 183.973006,26.5330667 183.973006,26.706493 C183.973006,26.8791907 183.964377,27.0569891 183.947837,27.238431 C183.914758,28.0895318 183.656596,28.7708496 183.171912,29.2823845 C182.68579,29.7946481 181.996159,30.0511442 181.098703,30.0511442 C180.202686,30.0511442 179.511616,29.7946481 179.027652,29.2823845" id="Fill-21" fill="#FFFFFF"></path>
                <path d="M185.592094,29.846093 C185.538879,29.7928992 185.512272,29.7251318 185.512272,29.642062 L185.512272,23.7827287 C185.512272,23.7003876 185.538879,23.6297054 185.592094,23.5721395 C185.644589,23.5145736 185.712186,23.4854264 185.793446,23.4854264 L186.306894,23.4854264 C186.396784,23.4854264 186.467976,23.5123876 186.52119,23.5655814 C186.573686,23.6195039 186.600293,23.6923721 186.600293,23.7827287 L186.600293,24.3277829 C186.934682,23.765969 187.500625,23.4854264 188.300281,23.4854264 L188.776335,23.4854264 C188.866225,23.4854264 188.93526,23.5102016 188.98416,23.5597519 C189.033059,23.6093023 189.057509,23.6792558 189.057509,23.7703411 L189.057509,24.2286822 C189.057509,24.3110233 189.033059,24.3795194 188.98416,24.4327132 C188.93526,24.4866357 188.866225,24.5135969 188.776335,24.5135969 L188.079513,24.5135969 C187.631504,24.5135969 187.279138,24.6454884 187.021695,24.9107287 C186.76569,25.1745116 186.636968,25.5337519 186.636968,25.9877209 L186.636968,29.642062 C186.636968,29.7251318 186.608922,29.7928992 186.551393,29.846093 C186.494583,29.9000155 186.424829,29.9269767 186.343569,29.9269767 L185.793446,29.9269767 C185.712186,29.9269767 185.644589,29.9000155 185.592094,29.846093" id="Fill-23" fill="#FFFFFF"></path>
                <path d="M190.659554,27.7589287 L190.659554,24.4390527 L189.693063,24.4390527 C189.611803,24.4390527 189.547083,24.4142775 189.498183,24.3654558 C189.448564,24.3151767 189.424833,24.2495953 189.424833,24.1665256 L189.424833,23.7701225 C189.424833,23.6877814 189.448564,23.6192853 189.498183,23.5653628 C189.547083,23.512169 189.611803,23.4859364 189.693063,23.4859364 L190.659554,23.4859364 L190.659554,21.4164791 C190.659554,21.334138 190.683285,21.2656419 190.732904,21.2124481 C190.781803,21.1585256 190.846524,21.1315643 190.927784,21.1315643 L191.465682,21.1315643 C191.546942,21.1315643 191.614539,21.1585256 191.667753,21.2124481 C191.720968,21.2656419 191.747575,21.334138 191.747575,21.4164791 L191.747575,23.4859364 L193.263469,23.4859364 C193.34401,23.4859364 193.411607,23.512169 193.464103,23.5653628 C193.518036,23.6192853 193.544643,23.6877814 193.544643,23.7701225 L193.544643,24.1665256 C193.544643,24.2495953 193.518036,24.3151767 193.464103,24.3654558 C193.411607,24.4142775 193.34401,24.4390527 193.263469,24.4390527 L191.747575,24.4390527 L191.747575,27.6722155 C191.747575,28.0933938 191.813734,28.4118279 191.948927,28.6260605 C192.083402,28.8410217 192.314238,28.948138 192.639997,28.948138 L193.385719,28.948138 C193.466979,28.948138 193.531699,28.9750992 193.580599,29.0290217 C193.630218,29.0822155 193.653949,29.1507116 193.653949,29.232324 L193.653949,29.6418434 C193.653949,29.7249132 193.630218,29.7926806 193.580599,29.8458744 C193.531699,29.8997969 193.466979,29.9274868 193.385719,29.9274868 L192.554422,29.9274868 C191.290218,29.9274868 190.659554,29.2039054 190.659554,27.7589287" id="Fill-25" fill="#FFFFFF"></path>
                <path d="M198.672365,28.6200124 C198.978708,28.2855473 199.142667,27.8046171 199.167117,27.1772217 C199.175027,27.0941519 199.179342,26.9367566 199.179342,26.706493 C199.179342,26.4747721 199.175027,26.3181054 199.167117,26.2357643 C199.142667,25.6076403 198.978708,25.1267101 198.672365,24.792245 C198.366742,24.4577798 197.95325,24.2909116 197.431173,24.2909116 C196.909814,24.2909116 196.497042,24.4577798 196.190699,24.792245 C195.885075,25.1267101 195.720398,25.6076403 195.695948,26.2357643 L195.683723,26.706493 L195.695948,27.1772217 C195.720398,27.8046171 195.885075,28.2855473 196.190699,28.6200124 C196.497042,28.9544775 196.909814,29.1213457 197.431173,29.1213457 C197.95325,29.1213457 198.366742,28.9544775 198.672365,28.6200124 M195.359402,29.2823845 C194.874719,28.7708496 194.615837,28.0895318 194.582758,27.238431 L194.571252,26.706493 L194.582758,26.1738264 C194.615837,25.3234543 194.879033,24.6414078 195.371627,24.1291442 C195.86494,23.6176093 196.551695,23.3618419 197.431173,23.3618419 C198.31137,23.3618419 198.998125,23.6176093 199.491437,24.1291442 C199.984031,24.6414078 200.246508,25.3234543 200.280307,26.1738264 C200.296127,26.3552682 200.304757,26.5330667 200.304757,26.706493 C200.304757,26.8791907 200.296127,27.0569891 200.280307,27.238431 C200.246508,28.0895318 199.988346,28.7708496 199.503662,29.2823845 C199.01826,29.7946481 198.327909,30.0511442 197.431173,30.0511442 C196.534436,30.0511442 195.844086,29.7946481 195.359402,29.2823845" id="Fill-27" fill="#FFFFFF"></path>
                <path d="M164.149952,45.0430512 C163.649448,44.8368341 163.245305,44.5271442 162.939681,44.1147101 C162.634057,43.7008186 162.473695,43.2016713 162.457155,42.6150822 C162.457155,42.5407566 162.481605,42.4773612 162.529786,42.4227101 C162.578686,42.3695163 162.644125,42.3432837 162.726104,42.3432837 L163.911925,42.3432837 C164.098895,42.3432837 164.217549,42.4460279 164.26573,42.652245 C164.331888,43.0821674 164.504476,43.3998729 164.78565,43.6060899 C165.066824,43.8137643 165.423505,43.9157798 165.855693,43.9157798 C166.360512,43.9157798 166.749553,43.7489116 167.022817,43.4144465 C167.29608,43.0799814 167.432712,42.6107101 167.432712,42.0088186 L167.432712,38.0447876 L163.288452,38.0447876 C163.206473,38.0447876 163.137438,38.0149116 163.080628,37.9573457 C163.023099,37.8997798 162.995053,37.8261829 162.995053,37.7350977 L162.995053,36.8555783 C162.995053,36.764493 163.023099,36.6916248 163.080628,36.638431 C163.137438,36.5852372 163.206473,36.5575473 163.288452,36.5575473 L168.898988,36.5575473 C168.988877,36.5575473 169.060789,36.5866946 169.113284,36.6449891 C169.166499,36.702555 169.193106,36.7768806 169.193106,36.8672372 L169.193106,42.0576403 C169.193106,42.7433302 169.053598,43.3335628 168.777458,43.8290667 C168.500598,44.3245705 168.107242,44.7027566 167.59739,44.9628961 C167.088256,45.2230357 166.491391,45.3534698 165.806793,45.3534698 C165.203456,45.3534698 164.651175,45.2492682 164.149952,45.0430512" id="Fill-29" fill="#FFFFFF"></path>
                <path d="M174.205626,43.7180884 C174.490395,43.420786 174.633499,42.9908636 174.633499,42.4297783 L174.633499,42.1820264 L173.411004,42.3802279 C172.473997,42.5281504 172.004415,42.8473132 172.004415,43.3340729 C172.004415,43.5985845 172.113001,43.8026155 172.329455,43.9468946 C172.54447,44.0919023 172.80407,44.1633132 173.10538,44.1633132 C173.553388,44.1633132 173.920856,44.0153907 174.205626,43.7180884 M171.547057,45.0989411 C171.199725,44.9298868 170.92718,44.7010806 170.727266,44.4110651 C170.527352,44.122507 170.427395,43.8048016 170.427395,43.4579488 C170.427395,42.8961349 170.652478,42.4414372 171.100487,42.0953132 C171.548496,41.7484605 172.163339,41.5130961 172.945736,41.3892202 L174.621274,41.1414682 L174.621274,40.8813287 C174.621274,40.5257318 174.531385,40.2575767 174.351606,40.0761349 C174.172546,39.8939643 173.887777,39.8036078 173.496578,39.8036078 C173.227629,39.8036078 173.011895,39.8524295 172.848656,39.9522589 C172.685416,40.0513597 172.55238,40.1519178 172.451704,40.2553907 C172.348871,40.3595922 172.281274,40.426631 172.248914,40.4601504 C172.216553,40.5585225 172.155429,40.6080729 172.065539,40.6080729 L171.112712,40.6080729 C171.039362,40.6080729 170.97608,40.5840264 170.923585,40.534476 C170.869651,40.4849256 170.843044,40.4193442 170.843044,40.3362744 C170.851673,40.1300574 170.95163,39.8968791 171.142915,39.6360109 C171.334918,39.3758713 171.629756,39.1485225 172.029584,38.954693 C172.428692,38.7608636 172.922005,38.6639488 173.508803,38.6639488 C174.469541,38.6639488 175.171397,38.8825535 175.611496,39.3204915 C176.050875,39.7577008 176.271643,40.332631 176.271643,41.0423674 L176.271643,44.9320729 C176.271643,45.014414 176.245036,45.0843674 176.191822,45.142662 C176.138607,45.2002279 176.068134,45.2293752 175.978244,45.2293752 L174.963573,45.2293752 C174.881594,45.2293752 174.812559,45.2002279 174.755749,45.142662 C174.698939,45.0843674 174.670174,45.014414 174.670174,44.9320729 L174.670174,44.4489566 C174.490395,44.7127395 174.237986,44.9298868 173.912227,45.0989411 C173.586468,45.2679953 173.178729,45.3532512 172.689731,45.3532512 C172.273364,45.3532512 171.892233,45.2679953 171.547057,45.0989411" id="Fill-31" fill="#FFFFFF"></path>
                <path d="M179.6453,45.1484186 C179.57986,45.0952248 179.527365,45.0187132 179.486375,44.9196124 L177.188084,39.1717674 C177.180173,39.1469922 177.175859,39.1098295 177.175859,39.0602791 C177.175859,38.9859535 177.202466,38.9218295 177.25568,38.867907 C177.308176,38.8147132 177.367143,38.7877519 177.433302,38.7877519 L178.447254,38.7877519 C178.610493,38.7877519 178.720518,38.8664496 178.777328,39.0231163 L180.391022,43.3463876 L182.004716,39.0231163 C182.021256,38.9655504 182.055773,38.9116279 182.108988,38.8620775 C182.161483,38.8125271 182.232676,38.7877519 182.322565,38.7877519 L183.337956,38.7877519 C183.410586,38.7877519 183.471711,38.8147132 183.520611,38.867907 C183.569511,38.9218295 183.593961,38.9859535 183.593961,39.0602791 C183.593961,39.1098295 183.589646,39.1469922 183.582455,39.1717674 L181.295669,44.9196124 C181.205779,45.1258295 181.059799,45.2293023 180.85629,45.2293023 L179.926474,45.2293023 C179.804224,45.2293023 179.710739,45.2023411 179.6453,45.1484186" id="Fill-33" fill="#FFFFFF"></path>
                <path d="M187.799274,43.7180884 C188.084043,43.420786 188.227147,42.9908636 188.227147,42.4297783 L188.227147,42.1820264 L187.005371,42.3802279 C186.067645,42.5281504 185.598782,42.8473132 185.598782,43.3340729 C185.598782,43.5985845 185.707368,43.8026155 185.923102,43.9468946 C186.138118,44.0919023 186.397718,44.1633132 186.699028,44.1633132 C187.147036,44.1633132 187.514504,44.0153907 187.799274,43.7180884 M185.140705,45.0989411 C184.794092,44.9298868 184.520828,44.7010806 184.320914,44.4110651 C184.121719,44.122507 184.021762,43.8048016 184.021762,43.4579488 C184.021762,42.8961349 184.246126,42.4414372 184.694854,42.0953132 C185.142863,41.7484605 185.757706,41.5130961 186.540103,41.3892202 L188.214922,41.1414682 L188.214922,40.8813287 C188.214922,40.5257318 188.125033,40.2575767 187.945973,40.0761349 C187.766194,39.8939643 187.481425,39.8036078 187.090945,39.8036078 C186.821277,39.8036078 186.605543,39.8524295 186.442303,39.9522589 C186.279064,40.0513597 186.146747,40.1519178 186.045352,40.2553907 C185.943238,40.3595922 185.875641,40.426631 185.843281,40.4601504 C185.81092,40.5585225 185.749077,40.6080729 185.659187,40.6080729 L184.70636,40.6080729 C184.63301,40.6080729 184.569728,40.5840264 184.517232,40.534476 C184.464018,40.4849256 184.437411,40.4193442 184.437411,40.3362744 C184.44604,40.1300574 184.545997,39.8968791 184.736563,39.6360109 C184.928566,39.3758713 185.224123,39.1485225 185.623231,38.954693 C186.02234,38.7608636 186.516372,38.6639488 187.102451,38.6639488 C188.063908,38.6639488 188.765045,38.8825535 189.205144,39.3204915 C189.645242,39.7577008 189.865291,40.332631 189.865291,41.0423674 L189.865291,44.9320729 C189.865291,45.014414 189.839403,45.0843674 189.786189,45.142662 C189.732255,45.2002279 189.661782,45.2293752 189.572611,45.2293752 L188.557221,45.2293752 C188.475242,45.2293752 188.406926,45.2002279 188.349397,45.142662 C188.292587,45.0843674 188.263822,45.014414 188.263822,44.9320729 L188.263822,44.4489566 C188.084043,44.7127395 187.832353,44.9298868 187.506594,45.0989411 C187.180116,45.2679953 186.772377,45.3532512 186.283379,45.3532512 C185.867011,45.3532512 185.4866,45.2679953 185.140705,45.0989411" id="Fill-35" fill="#FFFFFF"></path>
                <path d="M192.676456,45.0188589 C192.155097,44.7951535 191.760303,44.5022233 191.491354,44.1393395 C191.222405,43.7757271 191.079301,43.379324 191.062762,42.9494016 C191.062762,42.8838202 191.087931,42.8240682 191.136111,42.7701457 C191.18573,42.7162233 191.246855,42.6899907 191.319486,42.6899907 L192.431957,42.6899907 C192.521846,42.6899907 192.595196,42.7103938 192.652725,42.7519287 C192.709535,42.7927349 192.762031,42.8503008 192.81093,42.925355 C192.892909,43.2058977 193.078441,43.441262 193.367525,43.6314481 C193.65661,43.8209054 194.05428,43.9156341 194.559818,43.9156341 C195.130076,43.9156341 195.560107,43.8194481 195.849192,43.6248899 C196.138276,43.4303318 196.283537,43.1643628 196.283537,42.8255256 C196.283537,42.6032775 196.210187,42.4174636 196.062769,42.2688124 C195.916788,42.1194326 195.694582,41.9904558 195.396868,41.8775101 C195.099155,41.7667504 194.656899,41.6334016 194.070101,41.4760062 C193.109363,41.2442853 192.403911,40.9382388 191.955903,40.5585953 C191.507175,40.1789519 191.28353,39.6338977 191.28353,38.9241612 C191.28353,38.4454171 191.41369,38.0184093 191.674009,37.6416806 C191.935048,37.2656806 192.308269,36.9705643 192.792953,36.7556031 C193.277636,36.5413705 193.842141,36.4342543 194.486468,36.4342543 C195.162437,36.4342543 195.747077,36.5537581 196.24039,36.7927659 C196.733703,37.033231 197.108362,37.3319907 197.365086,37.6905023 C197.62181,38.0504713 197.757723,38.4082543 197.774982,38.7623938 C197.774982,38.8294326 197.750532,38.8891845 197.700913,38.9423783 C197.652732,38.9955721 197.590888,39.0225333 197.517539,39.0225333 L196.356168,39.0225333 C196.177108,39.0225333 196.054858,38.9489364 195.989419,38.7995566 C195.949149,38.5365023 195.790224,38.3149829 195.512646,38.1379132 C195.235786,37.959386 194.893488,37.8704868 194.486468,37.8704868 C194.037741,37.8704868 193.684655,37.9579287 193.42865,38.1306264 C193.171926,38.3040527 193.043924,38.5561767 193.043924,38.8862698 C193.043924,39.1099752 193.109363,39.2957891 193.239523,39.4444403 C193.369683,39.5930915 193.573192,39.7227969 193.850771,39.8342853 C194.12763,39.9457736 194.530335,40.0718357 195.060322,40.2124713 C195.785909,40.3778822 196.36264,40.5629674 196.790513,40.7691845 C197.218387,40.9761302 197.534078,41.2362698 197.738307,41.5503318 C197.941816,41.8636651 198.043212,42.265169 198.043212,42.7519287 C198.043212,43.2882388 197.89867,43.753138 197.608866,44.145169 C197.319782,44.5379287 196.912763,44.8366884 196.38709,45.0429054 C195.862136,45.2491225 195.252326,45.353324 194.559818,45.353324 C193.826321,45.353324 193.198533,45.2418357 192.676456,45.0188589" id="Fill-37" fill="#FFFFFF"></path>
                <path d="M199.895724,44.5976078 C199.362141,44.0940884 199.07809,43.3960109 199.04573,42.5041039 L199.033505,42.0086 L199.04573,41.5130961 C199.07809,40.6211891 199.362141,39.9231116 199.895724,39.4195922 C200.429307,38.9160729 201.144108,38.6639488 202.040125,38.6639488 C202.685171,38.6639488 203.228822,38.7798093 203.672516,39.0100729 C204.116929,39.2417938 204.447003,39.5245225 204.662738,39.8589876 C204.879191,40.1934527 204.995688,40.5140729 205.011509,40.818662 C205.019419,40.9017318 204.993531,40.9716853 204.932406,41.0299798 C204.870562,41.0882744 204.79937,41.116693 204.71811,41.116693 L203.630089,41.116693 C203.540199,41.116693 203.475479,41.0977473 203.434489,41.0605845 C203.3935,41.0241504 203.353229,40.9556543 203.31224,40.8558248 C203.18999,40.5432202 203.028908,40.3151426 202.829713,40.1752357 C202.629799,40.0346 202.374514,39.9646465 202.066013,39.9646465 C201.649646,39.9646465 201.325325,40.096538 201.09377,40.3610496 C200.861496,40.6255612 200.737089,41.0299798 200.71983,41.5750341 L200.709043,42.0326465 L200.71983,42.4414372 C200.769449,43.5162434 201.217457,44.0525535 202.066013,44.0525535 C202.383143,44.0525535 202.639867,43.9840574 202.835466,43.8477938 C203.031066,43.7115302 203.18999,43.482724 203.31224,43.1599178 C203.345319,43.0695612 203.383432,43.0032512 203.428017,42.962445 C203.473321,42.9209101 203.540199,42.900507 203.630089,42.900507 L204.71811,42.900507 C204.79937,42.900507 204.870562,42.9296543 204.932406,42.9864915 C204.993531,43.044786 205.019419,43.1147395 205.011509,43.1970806 C204.995688,43.4870961 204.881349,43.7982434 204.669929,44.1327085 C204.45779,44.4671736 204.132031,44.7542744 203.691213,44.9932822 C203.251115,45.2330186 202.700992,45.3532512 202.040125,45.3532512 C201.144108,45.3532512 200.429307,45.1011271 199.895724,44.5976078" id="Fill-39" fill="#FFFFFF"></path>
                <path d="M206.368479,45.1427349 C206.311669,45.0844403 206.282904,45.0144868 206.282904,44.9321457 L206.282904,39.0968589 C206.282904,39.0065023 206.311669,38.9321767 206.368479,38.8738822 C206.425289,38.8163163 206.494324,38.7878977 206.575584,38.7878977 L207.578749,38.7878977 C207.668639,38.7878977 207.741269,38.8163163 207.798799,38.8738822 C207.85489,38.9321767 207.884373,39.0065023 207.884373,39.0968589 L207.884373,39.6047504 C208.292112,39.0596961 208.87819,38.7878977 209.644767,38.7878977 L210.158934,38.7878977 C210.248105,38.7878977 210.318578,38.8141302 210.371792,38.8680527 C210.425007,38.9219752 210.451614,38.9941147 210.451614,39.0852 L210.451614,39.9894946 C210.451614,40.0718357 210.425007,40.1425178 210.371792,40.2000837 C210.318578,40.2576496 210.248105,40.2867969 210.158934,40.2867969 L209.192444,40.2867969 C208.809155,40.2867969 208.507846,40.3975566 208.287797,40.621262 C208.067029,40.8442388 207.957723,41.1495566 207.957723,41.5379442 L207.957723,44.9321457 C207.957723,45.0144868 207.928958,45.0844403 207.872148,45.1427349 C207.814619,45.2003008 207.745584,45.2294481 207.664324,45.2294481 L206.575584,45.2294481 C206.494324,45.2294481 206.425289,45.2003008 206.368479,45.1427349" id="Fill-41" fill="#FFFFFF"></path>
                <path d="M211.490735,45.1427349 C211.433925,45.0844403 211.405161,45.0144868 211.405161,44.9321457 L211.405161,39.0852 C211.405161,38.9941147 211.433925,38.9219752 211.490735,38.8680527 C211.547545,38.8141302 211.61658,38.7878977 211.69784,38.7878977 L212.736962,38.7878977 C212.818941,38.7878977 212.887976,38.8163163 212.944786,38.8738822 C213.003034,38.9321767 213.03108,39.0028589 213.03108,39.0852 L213.03108,44.9321457 C213.03108,45.0144868 213.003034,45.0844403 212.944786,45.1427349 C212.887976,45.2003008 212.818941,45.2294481 212.736962,45.2294481 L211.69784,45.2294481 C211.61658,45.2294481 211.547545,45.2003008 211.490735,45.1427349 M211.441836,37.6482388 C211.385025,37.5899442 211.356261,37.5199907 211.356261,37.4376496 L211.356261,36.533355 C211.356261,36.4429984 211.385025,36.3679442 211.441836,36.3103783 C211.498646,36.2520837 211.567681,36.2236651 211.64966,36.2236651 L212.773637,36.2236651 C212.863526,36.2236651 212.936876,36.2520837 212.994405,36.3103783 C213.051215,36.3679442 213.07998,36.4429984 213.07998,36.533355 L213.07998,37.4376496 C213.07998,37.5199907 213.049058,37.5899442 212.988652,37.6482388 C212.926808,37.7058047 212.854897,37.7349519 212.773637,37.7349519 L211.64966,37.7349519 C211.567681,37.7349519 211.498646,37.7058047 211.441836,37.6482388" id="Fill-43" fill="#FFFFFF"></path>
                <path d="M219.106739,42.3803008 C219.115369,42.2979597 219.119683,42.1740837 219.119683,42.0086729 C219.119683,41.8439907 219.115369,41.7201147 219.106739,41.6363163 C219.04921,40.5469364 218.584662,40.0018822 217.713813,40.0018822 C217.248546,40.0018822 216.901932,40.1541767 216.673973,40.4602233 C216.445294,40.7655411 216.323045,41.137169 216.307224,41.575107 C216.299314,41.6742078 216.294999,41.8308744 216.294999,42.0458357 C216.294999,42.2607969 216.299314,42.4218357 216.307224,42.5282233 C216.323045,42.9421147 216.449609,43.2926109 216.686198,43.581169 C216.922787,43.8704558 217.264366,44.0154636 217.713813,44.0154636 C218.584662,44.0154636 219.04921,43.4704093 219.106739,42.3803008 M214.74243,47.5022078 C214.68562,47.4482853 214.657574,47.3761457 214.657574,47.2850605 L214.657574,39.0852 C214.657574,38.9948434 214.68562,38.9219752 214.74243,38.8680527 C214.79924,38.8141302 214.868275,38.7878977 214.950254,38.7878977 L215.928251,38.7878977 C216.01814,38.7878977 216.09149,38.8163163 216.1483,38.8738822 C216.20511,38.9321767 216.233875,39.0028589 216.233875,39.0852 L216.233875,39.5807039 C216.665344,38.9686109 217.313266,38.6640217 218.177643,38.6640217 C219.001029,38.6640217 219.631693,38.9263473 220.072511,39.4502698 C220.512609,39.9749209 220.748479,40.6788279 220.780839,41.5619907 C220.789469,41.6618202 220.793783,41.8104713 220.793783,42.0086729 C220.793783,42.2068744 220.789469,42.3555256 220.780839,42.4546264 C220.757108,43.3210295 220.522677,44.021293 220.078983,44.5539597 C219.633851,45.087355 219.001029,45.353324 218.177643,45.353324 C217.362166,45.353324 216.738693,45.0603938 216.307224,44.4738047 L216.307224,47.2850605 C216.307224,47.3761457 216.280617,47.4482853 216.227402,47.5022078 C216.174188,47.5561302 216.102996,47.5830915 216.013825,47.5830915 L214.950254,47.5830915 C214.868275,47.5830915 214.79924,47.5561302 214.74243,47.5022078" id="Fill-45" fill="#FFFFFF"></path>
                <path d="M223.311908,44.6403085 C222.937249,44.2490062 222.75028,43.6726186 222.75028,42.9126031 L222.75028,40.1130062 L221.783789,40.1130062 C221.702529,40.1130062 221.633494,40.0845876 221.575965,40.026293 C221.519155,39.9687271 221.49039,39.898045 221.49039,39.8157039 L221.49039,39.0848357 C221.49039,39.0032233 221.519155,38.9318124 221.575965,38.8742465 C221.633494,38.8166806 221.702529,38.788262 221.783789,38.788262 L222.75028,38.788262 L222.75028,36.7311922 C222.75028,36.640107 222.778325,36.5679674 222.835854,36.5147736 C222.891945,36.4608512 222.961699,36.4338899 223.043679,36.4338899 L224.057631,36.4338899 C224.14752,36.4338899 224.218713,36.4608512 224.271927,36.5147736 C224.324422,36.5679674 224.35103,36.640107 224.35103,36.7311922 L224.35103,38.788262 L225.879149,38.788262 C225.961128,38.788262 226.029444,38.8166806 226.086973,38.8742465 C226.143784,38.9318124 226.173267,39.0032233 226.173267,39.0848357 L226.173267,39.8157039 C226.173267,39.898045 226.143784,39.9687271 226.086973,40.026293 C226.029444,40.0845876 225.961128,40.1130062 225.879149,40.1130062 L224.35103,40.1130062 L224.35103,42.7756109 C224.35103,43.1319364 224.412154,43.4000915 224.534404,43.5815333 C224.656654,43.7637039 224.856568,43.8540605 225.133427,43.8540605 L225.989174,43.8540605 C226.079063,43.8540605 226.150256,43.8810217 226.20347,43.9342155 C226.255966,43.988138 226.282573,44.0610062 226.282573,44.1513628 L226.282573,44.9317814 C226.282573,45.0148512 226.255966,45.084076 226.20347,45.1423705 C226.150256,45.2006651 226.079063,45.2298124 225.989174,45.2298124 L224.986727,45.2298124 C224.24532,45.2298124 223.686567,45.0330682 223.311908,44.6403085" id="Fill-47" fill="#FFFFFF"></path>
                <path d="M163.734879,59.0531318 C163.119316,58.4709147 162.7914,57.6431318 162.75041,56.5697829 C162.741781,56.3460775 162.737466,55.9831938 162.737466,55.4796744 C162.737466,54.9674109 162.741781,54.5957829 162.75041,54.3647907 C162.7914,53.3074729 163.120755,52.4833333 163.740632,51.8931008 C164.35979,51.3028682 165.227762,51.0077519 166.344547,51.0077519 C167.070135,51.0077519 167.701518,51.133814 168.239416,51.385938 C168.777314,51.6373333 169.19512,51.9827287 169.492114,52.4192093 C169.789828,52.857876 169.947314,53.3490078 169.963134,53.894062 L169.963134,53.9181085 C169.963134,53.9851473 169.936527,54.0405271 169.884032,54.0864341 C169.830817,54.1316124 169.77185,54.1542016 169.70641,54.1542016 L168.519871,54.1542016 C168.423509,54.1542016 168.34944,54.1316124 168.30126,54.0864341 C168.251641,54.0405271 168.21137,53.9603721 168.178291,53.8445116 C168.056041,53.3322481 167.843902,52.9708217 167.542593,52.7602326 C167.240565,52.5496434 166.841456,52.4447132 166.344547,52.4447132 C165.178862,52.4447132 164.571929,53.1056279 164.523029,54.426 C164.5144,54.6497054 164.510804,54.9929147 164.510804,55.4556279 C164.510804,55.9176124 164.5144,56.2681085 164.523029,56.507845 C164.571929,57.8289457 165.178862,58.4898605 166.344547,58.4898605 C166.833546,58.4898605 167.230497,58.3842016 167.53684,58.1736124 C167.841745,57.9630233 168.056041,57.6023256 168.178291,57.090062 C168.21137,56.9742016 168.251641,56.8940465 168.30126,56.8488682 C168.34944,56.8029612 168.423509,56.7803721 168.519871,56.7803721 L169.70641,56.7803721 C169.77976,56.7803721 169.843042,56.8051473 169.895538,56.853969 C169.948752,56.9042481 169.971045,56.966186 169.963134,57.0405116 C169.947314,57.5855659 169.789828,58.0766977 169.492114,58.5146357 C169.19512,58.951845 168.777314,59.2972403 168.239416,59.5486357 C167.701518,59.8007597 167.070135,59.9268217 166.344547,59.9268217 C165.219132,59.9268217 164.349722,59.6353488 163.734879,59.0531318" id="Fill-49" fill="#FFFFFF"></path>
                <path d="M175.091863,58.2668109 C175.323418,57.9942837 175.447825,57.5935085 175.464365,57.065214 C175.472275,56.9821442 175.47659,56.8218341 175.47659,56.5820977 C175.47659,56.3423612 175.472275,56.1813225 175.464365,56.0982527 C175.447825,55.5706868 175.321261,55.1677256 175.084672,54.8908264 C174.848802,54.6139271 174.518728,54.4762062 174.094451,54.4762062 C173.663701,54.4762062 173.329312,54.6139271 173.092723,54.8908264 C172.856134,55.1677256 172.72957,55.5706868 172.71375,56.0982527 L172.701525,56.5820977 L172.71375,57.065214 C172.72957,57.5935085 172.856134,57.9942837 173.092723,58.2668109 C173.329312,58.539338 173.663701,58.6763302 174.094451,58.6763302 C174.527358,58.6763302 174.85887,58.539338 175.091863,58.2668109 M171.870228,59.183493 C171.348869,58.6879891 171.066976,58.0030279 171.027425,57.1278806 L171.014481,56.5820977 L171.027425,56.0370434 C171.066976,55.1699116 171.353184,54.4864078 171.882453,53.9865318 C172.411721,53.4866558 173.149533,53.2381752 174.094451,53.2381752 C175.032177,53.2381752 175.765674,53.4866558 176.295662,53.9865318 C176.82493,54.4864078 177.110419,55.1699116 177.15069,56.0370434 C177.159319,56.1354155 177.163634,56.317586 177.163634,56.5820977 C177.163634,56.8466093 177.159319,57.0280512 177.15069,57.1278806 C177.110419,58.0030279 176.829245,58.6879891 176.307887,59.183493 C175.785809,59.6789969 175.047997,59.9267488 174.094451,59.9267488 C173.132994,59.9267488 172.391586,59.6789969 171.870228,59.183493" id="Fill-51" fill="#FFFFFF"></path>
                <path d="M178.605963,59.7163783 C178.548434,59.6580837 178.520388,59.5881302 178.520388,59.5057891 L178.520388,53.6588434 C178.520388,53.5677581 178.548434,53.4956186 178.605963,53.4416961 C178.662773,53.3877736 178.732527,53.3615411 178.813787,53.3615411 L179.779559,53.3615411 C179.868729,53.3615411 179.939921,53.3877736 179.993855,53.4416961 C180.04635,53.4956186 180.072238,53.5677581 180.072238,53.6588434 L180.072238,54.0800217 C180.513056,53.5182078 181.103449,53.2376651 181.845576,53.2376651 C182.750223,53.2376651 183.381606,53.6049209 183.740444,54.3394326 C183.936044,54.0093395 184.212903,53.7433705 184.571741,53.5407969 C184.93058,53.3389519 185.317464,53.2376651 185.732393,53.2376651 C186.40117,53.2376651 186.947698,53.4686574 187.371256,53.9313705 C187.794096,54.393355 188.006235,55.0666574 188.006235,55.9505488 L188.006235,59.5057891 C188.006235,59.5881302 187.979628,59.6580837 187.927851,59.7163783 C187.874637,59.7739442 187.802725,59.8030915 187.712836,59.8030915 L186.698884,59.8030915 C186.617624,59.8030915 186.54787,59.7739442 186.491059,59.7163783 C186.43353,59.6580837 186.405485,59.5881302 186.405485,59.5057891 L186.405485,56.0496496 C186.405485,55.5293705 186.296898,55.1533705 186.081883,54.9216496 C185.865429,54.691386 185.582098,54.5755256 185.231889,54.5755256 C184.913321,54.5755256 184.642934,54.6921147 184.419289,54.9289364 C184.194206,55.1635721 184.082024,55.5381147 184.082024,56.0496496 L184.082024,59.5057891 C184.082024,59.5881302 184.056136,59.6580837 184.00364,59.7163783 C183.950426,59.7739442 183.878514,59.8030915 183.789344,59.8030915 L182.761729,59.8030915 C182.680469,59.8030915 182.611434,59.7739442 182.553904,59.7163783 C182.497094,59.6580837 182.46833,59.5881302 182.46833,59.5057891 L182.46833,56.0496496 C182.46833,55.5381147 182.359024,55.1635721 182.138256,54.9289364 C181.918926,54.6921147 181.637752,54.5755256 181.295453,54.5755256 C180.977604,54.5755256 180.706498,54.6921147 180.482134,54.9289364 C180.25777,55.1635721 180.146307,55.5381147 180.146307,56.0496496 L180.146307,59.5057891 C180.146307,59.5881302 180.1197,59.6580837 180.066485,59.7163783 C180.013271,59.7739442 179.942079,59.8030915 179.852908,59.8030915 L178.813787,59.8030915 C178.732527,59.8030915 178.662773,59.7739442 178.605963,59.7163783" id="Fill-53" fill="#FFFFFF"></path>
                <path d="M189.64553,59.7163783 C189.588,59.6580837 189.559955,59.5881302 189.559955,59.5057891 L189.559955,53.6588434 C189.559955,53.5677581 189.588,53.4956186 189.64553,53.4416961 C189.701621,53.3877736 189.771375,53.3615411 189.852635,53.3615411 L190.818406,53.3615411 C190.908296,53.3615411 190.979488,53.3877736 191.032703,53.4416961 C191.085198,53.4956186 191.111805,53.5677581 191.111805,53.6588434 L191.111805,54.0800217 C191.551904,53.5182078 192.143016,53.2376651 192.884424,53.2376651 C193.789071,53.2376651 194.421173,53.6049209 194.779292,54.3394326 C194.974891,54.0093395 195.25247,53.7433705 195.610589,53.5407969 C195.969428,53.3389519 196.356311,53.2376651 196.77196,53.2376651 C197.440737,53.2376651 197.987264,53.4686574 198.410104,53.9313705 C198.833663,54.393355 199.045802,55.0666574 199.045802,55.9505488 L199.045802,59.5057891 C199.045802,59.5881302 199.019195,59.6580837 198.966699,59.7163783 C198.914204,59.7739442 198.842292,59.8030915 198.752403,59.8030915 L197.738451,59.8030915 C197.656472,59.8030915 197.586717,59.7739442 197.530626,59.7163783 C197.473097,59.6580837 197.445052,59.5881302 197.445052,59.5057891 L197.445052,56.0496496 C197.445052,55.5293705 197.336465,55.1533705 197.120731,54.9216496 C196.904277,54.691386 196.621665,54.5755256 196.270737,54.5755256 C195.952888,54.5755256 195.682501,54.6921147 195.458137,54.9289364 C195.233773,55.1635721 195.121591,55.5381147 195.121591,56.0496496 L195.121591,59.5057891 C195.121591,59.5881302 195.094984,59.6580837 195.042488,59.7163783 C194.989993,59.7739442 194.918081,59.8030915 194.828192,59.8030915 L193.801296,59.8030915 C193.720036,59.8030915 193.650281,59.7739442 193.593471,59.7163783 C193.535942,59.6580837 193.507897,59.5881302 193.507897,59.5057891 L193.507897,56.0496496 C193.507897,55.5381147 193.398591,55.1635721 193.177823,54.9289364 C192.957774,54.6921147 192.6766,54.5755256 192.334301,54.5755256 C192.016452,54.5755256 191.745346,54.6921147 191.521701,54.9289364 C191.297337,55.1635721 191.185155,55.5381147 191.185155,56.0496496 L191.185155,59.5057891 C191.185155,59.5881302 191.158548,59.6580837 191.106052,59.7163783 C191.052838,59.7739442 190.980926,59.8030915 190.891756,59.8030915 L189.852635,59.8030915 C189.771375,59.8030915 189.701621,59.7739442 189.64553,59.7163783" id="Fill-55" fill="#FFFFFF"></path>
                <path d="M201.185025,59.1833473 C200.752837,58.6878434 200.537822,58.0072543 200.537822,57.1393938 L200.537822,53.6584791 C200.537822,53.5681225 200.565867,53.4952543 200.623397,53.4413318 C200.680207,53.388138 200.749961,53.3619054 200.831221,53.3619054 L201.930748,53.3619054 C202.012008,53.3619054 202.081762,53.390324 202.138572,53.4478899 C202.196101,53.5054558 202.224147,53.5768667 202.224147,53.6584791 L202.224147,57.0650682 C202.224147,58.0808512 202.660649,58.5894713 203.532936,58.5894713 C203.956495,58.5894713 204.292322,58.4524791 204.541135,58.1799519 C204.789949,57.9074248 204.914356,57.5357969 204.914356,57.0650682 L204.914356,53.6584791 C204.914356,53.5681225 204.942402,53.4952543 204.999931,53.4413318 C205.056741,53.388138 205.125776,53.3619054 205.207755,53.3619054 L206.295057,53.3619054 C206.384227,53.3619054 206.456139,53.388138 206.509353,53.4413318 C206.562568,53.4952543 206.589175,53.5681225 206.589175,53.6584791 L206.589175,59.5054248 C206.589175,59.5884946 206.562568,59.6577194 206.509353,59.716014 C206.456139,59.7743085 206.384227,59.8034558 206.295057,59.8034558 L205.280386,59.8034558 C205.199126,59.8034558 205.130091,59.7743085 205.072561,59.716014 C205.015751,59.6577194 204.986987,59.5884946 204.986987,59.5054248 L204.986987,58.9975333 C204.538978,59.6169132 203.86301,59.9273318 202.957644,59.9273318 C202.208326,59.9273318 201.617933,59.6795798 201.185025,59.1833473" id="Fill-57" fill="#FFFFFF"></path>
                <path d="M208.287725,59.7163783 C208.230915,59.6580837 208.20215,59.5881302 208.20215,59.5057891 L208.20215,53.6588434 C208.20215,53.5677581 208.230915,53.4956186 208.287725,53.4416961 C208.345254,53.3877736 208.414289,53.3615411 208.495549,53.3615411 L209.510221,53.3615411 C209.599391,53.3615411 209.671302,53.3877736 209.724517,53.4416961 C209.777012,53.4956186 209.803619,53.5677581 209.803619,53.6588434 L209.803619,54.1667349 C210.300528,53.5466264 210.98153,53.2376651 211.845187,53.2376651 C212.595224,53.2376651 213.189932,53.4854171 213.63075,53.9809209 C214.070129,54.4764248 214.290898,55.1577426 214.290898,56.0248744 L214.290898,59.5057891 C214.290898,59.5881302 214.26429,59.6580837 214.210357,59.7163783 C214.157861,59.7739442 214.086669,59.8030915 213.996779,59.8030915 L212.896533,59.8030915 C212.815273,59.8030915 212.745519,59.7739442 212.688709,59.7163783 C212.631899,59.6580837 212.603854,59.5881302 212.603854,59.5057891 L212.603854,56.0984713 C212.603854,55.6204558 212.487357,55.2459132 212.255083,54.9777581 C212.022089,54.7096031 211.690577,54.5755256 211.258389,54.5755256 C210.842741,54.5755256 210.508352,54.7117891 210.255943,54.9843163 C210.003533,55.2568434 209.877688,55.6284713 209.877688,56.0984713 L209.877688,59.5057891 C209.877688,59.5881302 209.851081,59.6580837 209.797867,59.7163783 C209.743933,59.7739442 209.67346,59.8030915 209.584289,59.8030915 L208.495549,59.8030915 C208.414289,59.8030915 208.345254,59.7739442 208.287725,59.7163783" id="Fill-59" fill="#FFFFFF"></path>
                <path d="M215.928323,59.7163783 C215.871512,59.6580837 215.842748,59.5881302 215.842748,59.5057891 L215.842748,53.6588434 C215.842748,53.5677581 215.871512,53.4956186 215.928323,53.4416961 C215.985852,53.3877736 216.054887,53.3615411 216.136147,53.3615411 L217.175268,53.3615411 C217.257247,53.3615411 217.325563,53.3899597 217.383092,53.4475256 C217.440622,53.5058202 217.469386,53.5765023 217.469386,53.6588434 L217.469386,59.5057891 C217.469386,59.5881302 217.440622,59.6580837 217.383092,59.7163783 C217.325563,59.7739442 217.257247,59.8030915 217.175268,59.8030915 L216.136147,59.8030915 C216.054887,59.8030915 215.985852,59.7739442 215.928323,59.7163783 M215.879423,52.2218822 C215.823332,52.1635876 215.793848,52.0936341 215.793848,52.011293 L215.793848,51.1069984 C215.793848,51.0166419 215.823332,50.9415876 215.879423,50.8840217 C215.936952,50.8257271 216.005268,50.7973085 216.087247,50.7973085 L217.211943,50.7973085 C217.301832,50.7973085 217.375182,50.8257271 217.432711,50.8840217 C217.488802,50.9415876 217.518286,51.0166419 217.518286,51.1069984 L217.518286,52.011293 C217.518286,52.0936341 217.487364,52.1635876 217.426239,52.2218822 C217.365114,52.2794481 217.293203,52.3085953 217.211943,52.3085953 L216.087247,52.3085953 C216.005268,52.3085953 215.936952,52.2794481 215.879423,52.2218822" id="Fill-61" fill="#FFFFFF"></path>
                <path d="M220.292848,59.2139519 C219.918189,58.8226496 219.7305,58.246262 219.7305,57.4862465 L219.7305,54.6866496 L218.764728,54.6866496 C218.682749,54.6866496 218.613714,54.658231 218.556904,54.5999364 C218.500094,54.5423705 218.471329,54.4716884 218.471329,54.3893473 L218.471329,53.6584791 C218.471329,53.5768667 218.500094,53.5054558 218.556904,53.4478899 C218.613714,53.390324 218.682749,53.3619054 218.764728,53.3619054 L219.7305,53.3619054 L219.7305,51.3048357 C219.7305,51.2137504 219.758545,51.1416109 219.816074,51.0884171 C219.872884,51.0344946 219.942639,51.0075333 220.023899,51.0075333 L221.037851,51.0075333 C221.12774,51.0075333 221.199652,51.0344946 221.252866,51.0884171 C221.304643,51.1416109 221.33125,51.2137504 221.33125,51.3048357 L221.33125,53.3619054 L222.859369,53.3619054 C222.941348,53.3619054 223.010383,53.390324 223.067194,53.4478899 C223.124723,53.5054558 223.153487,53.5768667 223.153487,53.6584791 L223.153487,54.3893473 C223.153487,54.4716884 223.124723,54.5423705 223.067194,54.5999364 C223.010383,54.658231 222.941348,54.6866496 222.859369,54.6866496 L221.33125,54.6866496 L221.33125,57.3492543 C221.33125,57.7055798 221.393094,57.9737349 221.515343,58.1551767 C221.637593,58.3373473 221.836788,58.4277039 222.113647,58.4277039 L222.970113,58.4277039 C223.059283,58.4277039 223.130476,58.4546651 223.184409,58.5078589 C223.236905,58.5617814 223.263512,58.6346496 223.263512,58.7250062 L223.263512,59.5054248 C223.263512,59.5884946 223.236905,59.6577194 223.184409,59.716014 C223.130476,59.7743085 223.059283,59.8034558 222.970113,59.8034558 L221.967667,59.8034558 C221.226259,59.8034558 220.667507,59.6067116 220.292848,59.2139519" id="Fill-63" fill="#FFFFFF"></path>
                <g id="Group-67" transform="translate(223.644787, 52.683575)">
                    <mask id="mask-2" fill="white">
                        <use xlink:href="#path-1"></use>
                    </mask>
                    <g id="Clip-66"></g>
                    <path d="M1.67841457,9.39817829 C1.62520006,9.34935659 1.59931192,9.2917907 1.59931192,9.22548062 C1.59931192,9.16791473 1.61513245,9.10160465 1.64821174,9.02655039 L2.61398328,6.73557364 L0.266791691,1.12399225 C0.233712398,1.04966667 0.217891866,0.991372093 0.217891866,0.949837209 C0.225802132,0.87624031 0.254566735,0.812116279 0.30346656,0.758193798 C0.352366384,0.704271318 0.41277205,0.67803876 0.486840902,0.67803876 L1.50151227,0.67803876 C1.64821174,0.67803876 1.75392166,0.756736434 1.81864201,0.912674419 L3.4452803,4.95103101 L5.09564939,0.912674419 C5.17690939,0.756736434 5.29052957,0.67803876 5.43866728,0.67803876 L6.42816961,0.67803876 C6.50151935,0.67803876 6.56264413,0.702085271 6.61082484,0.752364341 C6.66044378,0.801914729 6.68489369,0.858751938 6.68489369,0.925790698 C6.68489369,0.983356589 6.66835404,1.04966667 6.63671298,1.12399225 L3.17633126,9.23713953 C3.11089179,9.3938062 2.99727161,9.47323256 2.83403249,9.47323256 L1.856036,9.47323256 C1.79059652,9.47323256 1.73162909,9.44772868 1.67841457,9.39817829" id="Fill-65" fill="#FFFFFF" mask="url(#mask-2)"></path>
                </g>
            </g>
        </g>
    </g>
</svg>